<svg id="Layer_1" data-name="Layer 1" xmlns="http://www.w3.org/2000/svg" viewBox="0 0 1881 903.8"><defs><style>.cls-1{fill:#0763c1;}</style></defs><path d="M147.5,898.6l6.6,1.5-.9-.5,4.3,3.6a2.1,2.1,0,0,0,2.9,0,2,2,0,0,0,0-2.8l-2.4-2.1a8.4,8.4,0,0,0-3.1-2.2l-6.3-1.4a2,2,0,0,0-2.5,1.4,2.1,2.1,0,0,0,1.4,2.5Z"/><path class="cls-1" d="M271.3,188.2c-4.2-.5-7.7-4.8-12.1-7.6a99.4,99.4,0,0,0-18.3-9.5,81,81,0,0,0-29.3-5.9c-11.9,0-21.7,2.8-29.2,8.5S171,186.8,171,195.9q0,9.4,5.7,15.6a49,49,0,0,0,14.9,10.6,122.2,122.2,0,0,0,20.8,7.8c7.7,2.2,15.3,4.6,22.9,7.1,30.2,10.1,52.3,23.5,66.3,40.4s21.1,38.8,21.1,65.9c0,18.2-3.1,34.8-9.3,49.6a102.6,102.6,0,0,1-26.9,38q-17.7,15.9-43.4,24.6t-58.4,8.7A213.1,213.1,0,0,1,91.8,443a233.7,233.7,0,0,1-21.9-12.1c-7.1-4.4-11.9-5.6-10.5-14.4a108.7,108.7,0,0,1,16.2-41.7,112.6,112.6,0,0,1,12-15.5c2.4-2.5,4.9-5.5,7.8-7.4s4.5-1.8,8.6,1.6c11,9.2,23.1,17.5,36.3,23.3s26.9,9,40.2,9c15.1,0,26.3-3.5,33.7-10.4s11.1-14.8,11.1-23.6a32.1,32.1,0,0,0-2.8-14,30.3,30.3,0,0,0-9.4-10.8,76.8,76.8,0,0,0-17.3-9.2c-7.1-2.9-15.7-6-25.7-9.5-12-3.8-23.7-7.9-35.2-12.5a109.4,109.4,0,0,1-30.7-18.2A83.7,83.7,0,0,1,82.4,249c-5.5-11.5-8.2-26-8.2-43.7s2.9-33.6,8.7-47.9a106.7,106.7,0,0,1,24.6-36.9q15.8-15.3,38.7-23.8c15.3-5.7,32.4-8.5,51.3-8.5a223,223,0,0,1,55.2,7.3c17.6,4.5,38.1,10.4,53.5,20,12.9,7.9,4.6,33.2-1.5,43.2s-17.6,22.2-28.7,28.5A7.7,7.7,0,0,1,271.3,188.2Z"/><path class="cls-1" d="M520.6,287.2a29.2,29.2,0,0,1-6.5-1.5c-11.3-3.5-23-8.7-34.6-10.8-8.1-1.5-19.3,1.6-26.9,4.6a57.8,57.8,0,0,0-18.6,12A55,55,0,0,0,421.5,310a60.5,60.5,0,0,0-4.5,23.8,59.5,59.5,0,0,0,4.5,23.4,56.9,56.9,0,0,0,12.2,18.4,53.9,53.9,0,0,0,18.7,12.1c16.9,6.6,41.6,7.9,56.3-4.3a41.7,41.7,0,0,1,6.2-4.9c2.3-1.2,5.2-1.8,7.5-.6s3.9,4.6,4.7,7.5a110.1,110.1,0,0,1,2.7,45.7c-.9,5.6-2.5,12.1-6.8,16.2s-12.2,4.8-17.4,6.6c-14.5,4.9-29.8,8-45.2,8a141.4,141.4,0,0,1-50.3-9A126.8,126.8,0,0,1,339,387q-10.8-23.4-10.8-52.2c0-19.2,3.4-36.8,10.4-52.7A125.2,125.2,0,0,1,366.9,241a127.1,127.1,0,0,1,42.8-26.9,143.5,143.5,0,0,1,53.1-9.7,132.7,132.7,0,0,1,40.5,6.2c6,1.9,11.6,4.8,17.4,6.9s9.6,4.5,12.5,9.9,3.7,11.5,4,17.6a103.9,103.9,0,0,1-2.7,27.2c-1.5,6.3-4.6,13.4-10.9,14.8A15.1,15.1,0,0,1,520.6,287.2Z"/><path class="cls-1" d="M735.4,212.1c2.2-7,10.8-8.1,18.8-8.6a330.8,330.8,0,0,1,46.7.3c5.9.4,14.7,1.4,18.4,6.9s1.5,18.7,1.5,25.9V411.5c0,11.8,1.1,24.2,0,36-2.2,23.8-46.4,21.2-64.4,18.9-10.4-1.3-20-3.4-22.2-13.9-.7-3.3-1.3-22.7.6-25.1-18.2,23-43,34.5-74.1,34.5a121.3,121.3,0,0,1-48.7-9.7A117,117,0,0,1,573.3,425a124.1,124.1,0,0,1-25.8-41.1,141.2,141.2,0,0,1-9.2-51.5,136.5,136.5,0,0,1,9-49.4,127.4,127.4,0,0,1,25-40.8,118,118,0,0,1,38.3-27.7c14.8-6.7,31.2-10.1,49.1-10.1q45.4,0,75.1,31.6c0-6.6.1-13.2,0-19.9A12.5,12.5,0,0,1,735.4,212.1ZM627.1,332.4a55.3,55.3,0,0,0,4.3,22,56.4,56.4,0,0,0,11.5,17.7,53,53,0,0,0,17.5,11.8,57.1,57.1,0,0,0,22,4.3,55.8,55.8,0,0,0,21.5-4.3,52,52,0,0,0,17.5-11.8,62.7,62.7,0,0,0,11.8-17.5,50.7,50.7,0,0,0,4.5-21.2,52.1,52.1,0,0,0-4.5-21.5,62.8,62.8,0,0,0-11.8-17.8,53.5,53.5,0,0,0-17.5-11.8,55.7,55.7,0,0,0-21.5-4.2,57.1,57.1,0,0,0-22,4.2,54.6,54.6,0,0,0-17.5,11.8,59.4,59.4,0,0,0-11.5,17.3A50.9,50.9,0,0,0,627.1,332.4Z"/><path class="cls-1" d="M841.8,212.3c1.8-4.5,6.3-6.2,12.5-8.8a73.9,73.9,0,0,1,28.6-5.9c11.7,0,41,4.1,43.4,17.6,1.5,8.6,0,18.7,0,27.5q17.6-21.3,35.4-28.6c12-4.9,26-7.3,42.1-7.3s31.5,2.7,43.7,8.2a86.8,86.8,0,0,1,30.9,23.4,67.3,67.3,0,0,1,14.2,27.4,144,144,0,0,1,3.8,34.5V424.5c0,8.1.5,16.5,0,24.6-.7,9.8-8.9,9.1-17.6,10.4a165.1,165.1,0,0,1-32.2,1.5,161.3,161.3,0,0,1-25-3.2c-7.5-1.5-10.2-1.3-10.7-8.8-3-38.5,0-78.4,0-117.1,0-11.9-.9-21.6-2.6-29s-4.8-13.3-9.2-17.7a33.1,33.1,0,0,0-12.8-8.1,49.7,49.7,0,0,0-15.1-2.3c-14.5,0-25.6,4.3-33.3,13s-11.6,21-11.6,37.1v96.4c0,9.1.7,18.5,0,27.6S914.4,458,906,459.3a161.6,161.6,0,0,1-32.6,1.5c-8.7-.5-19-1-27.3-4s-5.3-9.6-5.3-17.4V218.1A14,14,0,0,1,841.8,212.3Z"/><path class="cls-1" d="M1297,266.9c1.4-.5,3.9,0,5.4,0,3.3.1,6.6,0,9.8,0h78.4c12,0,23.5.2,35.4-.6a136.1,136.1,0,0,1,37.1,2.8c5.8,1.3,12.1,3.4,15,8.5s2.1,8.4,2,12.8c-1,24.3-2.9,47.9-11.1,71-6.7,18.6-15.6,35.1-27,49.4a156.8,156.8,0,0,1-39.9,35.9,189.6,189.6,0,0,1-50.3,22,217.6,217.6,0,0,1-57.6,7.5c-27.8,0-53-4.6-75.9-13.7a171.6,171.6,0,0,1-58.8-38.5c-16.4-16.5-29.1-36.4-38.2-59.5s-13.7-48.7-13.7-76.8,4.5-53.1,13.4-76.3,21.8-42.9,38.3-59.3,36.4-29.1,59.8-38.2,49.2-13.7,77.9-13.7q55.8,0,97.8,24.1c26,14.9,46.3,37.5,60.8,63.5,3.4,6.1,7,10.8,2.9,17.1s-12.5,11-18.3,14.9a128.1,128.1,0,0,1-41.8,18.3c-5.4,1.3-11.3,2.2-16.6.3s-10.4-7.9-14.2-13.3c-8.1-11.3-15.6-27.2-28.1-33.8a91.5,91.5,0,0,0-42.5-10.8q-20.9,0-37.8,7.8a81.9,81.9,0,0,0-29,22.2c-8.1,9.6-14.4,21.2-18.9,34.7s-6.9,28.7-6.9,45.4a144.5,144.5,0,0,0,5.9,42,93.4,93.4,0,0,0,17.7,33.5,80.1,80.1,0,0,0,29.3,22c11.7,5.2,25.2,7.8,40.6,7.8a109.9,109.9,0,0,0,26.5-3.1,68.3,68.3,0,0,0,22.9-9.9,55.8,55.8,0,0,0,16.8-17.7c4.4-7.2,7.4-16.1,9-26.5h-64.9c-3,0-8.1,1-10.9.1-5.2-1.8-7-11.3-8.3-16.1a75,75,0,0,1,1.2-43c1.2-3.5,3-11,6.5-12.7Z"/><path class="cls-1" d="M1507,328.1a117.3,117.3,0,0,1,10.9-50.3,122.9,122.9,0,0,1,30.2-40.6,143.5,143.5,0,0,1,46.1-27.2c17.7-6.6,37.2-9.9,58.3-9.9s40.1,3.2,57.9,9.7,33.2,15.4,46.3,26.9a121,121,0,0,1,30.4,41.1q11,23.8,10.9,52.7t-11.1,52.7a125.4,125.4,0,0,1-30.5,41.1q-19.4,17.3-46.5,26.7t-58.8,9.4q-31.2,0-57.7-9.4t-45.5-27a122.4,122.4,0,0,1-30-41.8Q1506.9,357.9,1507,328.1Zm90.2,1a54.3,54.3,0,0,0,4.5,22.4,59,59,0,0,0,11.8,17.7A50.6,50.6,0,0,0,1631,381a55.9,55.9,0,0,0,43,0,50.6,50.6,0,0,0,17.5-11.8,59,59,0,0,0,11.8-17.7,53.3,53.3,0,0,0,4.5-21.9,52.1,52.1,0,0,0-4.5-21.5,60.7,60.7,0,0,0-11.8-17.8,53.5,53.5,0,0,0-17.5-11.8,57.1,57.1,0,0,0-43,0,53.5,53.5,0,0,0-17.5,11.8,62,62,0,0,0-11.8,17.5A50.9,50.9,0,0,0,1597.2,329.1Z"/><path class="cls-1" d="M146.8,168.8c2.6,0,2.6-4.1,0-4.1s-2.7,4.1,0,4.1Z"/><rect class="cls-1" width="51.7" height="201" rx="25.8"/><rect class="cls-1" x="74.7" y="-74.7" width="51.7" height="201" rx="25.8" transform="translate(126.3 -74.7) rotate(90)"/><rect class="cls-1" x="1829.3" y="335" width="51.7" height="201" rx="25.8" transform="translate(3710.3 871) rotate(180)"/><rect class="cls-1" x="1754.7" y="409.7" width="51.7" height="201" rx="25.8" transform="translate(1270.3 2290.7) rotate(-90)"/></svg>